<svg version="1.2" xmlns="http://www.w3.org/2000/svg" viewBox="0 0 1556 560" width="1556" height="560">
	<title>bdn-svg</title>
	<style>
		.s0 { fill: #dadadc } 
		.s1 { fill: #fdfdfd } 
	</style>
	<path fill-rule="evenodd" class="s0" d="m152 33h3v2l-8 7-3 7 1 7 6-2 20-10 11-8 2-3h2v7l-3 6 12 2 2 1 11 1-1 4-5 6 12 6 1 2-3 1 4 2 10 2 14 8 7 8 2 4-14 10h-2l3 3 14 5 4 3 2 21 2 6 1 7 3 2 3 16 7 21 5 16 2 6-1 7-9 12-5 7h-2l-1 3h-2l-1 3-5 3-2 3 4 2-2 4-5 3-18 4-2 2 2 5 2 9 6 7v2h2l6 9 7 11 9 13 2 5 7 13 10 19 13 24 8 15 4 8 3 8 7 15 4 11v3l-10 4-10 5-17 4-13 2 8 38 4 10 3 5 3 8 2 4h2l6 12v8h-2v2l-6 4h-22l-3-4-2-16-1-12-5-16-8-19-4-11-3-6-13 1-13 2h-5l-1-7-1-1-4-31-3-13-4-16-1 13-1 5-2 52-1 1-21-1-16-1-1 11-1 2-1 15v22l2 8v14l-3 8h-19l-3-3-12-1-5-4v-8l6-4 5-3 3-3h2l1-13v-15l-2-18-2-7v-4h-39l-14-3-12-4-14-7-11-8-14-7-8-3 3-13 12-22 5-7 5-9 6-9 11-18 21-30 11-18 9-14 4-5 3-8 2-21-4-2-10-10v-2h5l-5-4 1-11 6-8 7-6h2l2-18 3-17 2-11 2-7v-12l-2-6v-15l2-7 4-9 9-5 1-2-6-4-14-6-5-1v-3l7-4 10-5 15-6v-10h2l-2-7v-11l4-6 8-7zm84 145l-7 2-7 1-3 3-5 9-4 5-2 4 1 5 4 5 1 2v6l-1 3h-2l-1 7h6l5-3v-2l4-2 5-4 2-1h10l8-8 1-2v-6l-8-18-2-5zm-96 1l-2 12-1 1v11l7-5-1-6-2-13z"/>
	<path fill-rule="evenodd" class="s1" d="m292 91h84l12 3 11 6 9 8 6 10 4 11 1 14-3 13-7 12 11 8 7 8 5 11 1 4v17l-4 13-7 10-10 9-13 6-10 2h-97zm36 31v36h36l9-2 7-5 3-5 1-8-3-8-6-5-7-3zm0 65v38h46l11-2 6-4 5-6 1-3v-9l-5-8-9-5-5-1z"/>
	<path fill-rule="evenodd" class="s1" d="m666 91h97l13 3 11 6 10 9 6 10 4 16v11l-2 11-6 12-8 9-9 6-5 2h-3l7 12 36 57v1h-42l-7-10-12-20-15-24-7-11-32-1v66h-36zm36 32v35h54l8-4 6-7 1-8-3-8-7-6-6-2z"/>
	<path fill-rule="evenodd" class="s1" d="m920 91h27l17 4 12 5 12 7 12 11 7 8 8 14 5 16 1 6v23l-4 17-8 16-8 10-10 10-13 8-11 5-14 4-7 1h-25l-15-3-13-5-11-6-9-7-10-10-9-14-5-12-3-14v-23l4-17 8-16 8-10 9-9 14-9 11-5 14-4zm4 32l-13 4-10 6-8 8-6 11-3 9-1 6v13l3 13 5 10 9 10 9 6 11 4 5 1h17l12-3 9-5 10-9 6-9 4-12 1-6v-13l-3-13-5-10-9-10-9-6-11-4-5-1z"/>
	<path class="s1" d="m488 282h43l12 14 9 11 12 14 9 11 12 14 9 11 12 14 9 11 12 14 9 11 12 14 3 4v-130l-12-3-8-3v-7h59l1 1v6l-19 6-1 1-1 10-1 170-2 1h-11l-9-10-9-11-22-26-9-11-12-14-9-11-12-14-9-11-12-14-9-11-12-14-4-5v137l1 2 19 6v7h-60l-1-6 6-3 13-4 2-1v-168l-11-3-9-3-1-6z"/>
	<path class="s1" d="m1065 91h121v32h-85v27h62l3 1v31h-65v42h85v32h-121z"/>
	<path fill-rule="evenodd" class="s1" d="m526 91h36l5 10 16 39 19 46 17 41 11 27v2h-38l-10-24v-3h-76l-3 10-7 17h-38l3-9 16-39 34-82 14-34zm17 43l-19 49-5 13v2h50l-3-10-17-44-4-10z"/>
	<path fill-rule="evenodd" class="s1" d="m846 278h35l21 4 15 6 11 6 11 9 9 10 9 15 6 18 3 19v20l-3 21-6 18-7 13-10 13-8 8-13 9-14 7-17 5-13 2h-35l-20-4-16-6-13-8-12-11-8-10-8-15-5-15-3-20v-21l3-20 6-18 6-11 10-13 8-8 13-9 15-7 17-5zm-2 12l-16 4-14 7-11 11-8 15-5 17-2 14v37l3 18 6 18 7 12 11 12 11 7 9 4 13 3 17 1 18-2 15-5 11-7 9-10 6-10 6-18 3-20v-35l-3-18-5-16-8-14-9-10-10-7-12-5-13-3z"/>
	<path class="s1" d="m1273 91h26l15 3 17 6 14 8 5 5-12 14-8 10-11-6-12-5-17-3h-8l-11 2-8 5-2 4 1 7 4 4 10 4 26 5 22 5 16 7 8 6 7 7 6 12 2 12-1 12-4 11-8 11-10 8-14 7-17 4h-25l-19-4-19-8-13-8-10-8 6-8 10-11 5-6 4 2 14 9 11 5 16 4h13l13-3 8-6 3-7-1-6-4-5-8-4-21-5-24-5-18-6-10-6-7-6-6-10-2-6v-17l3-10 6-10 8-8 12-7 13-4z"/>
	<path class="s1" d="m1400 282h140l1 5-7 36-2 4h-6l-8-27v-4h-67v75l48-1 2-1 6-20 8-1 1 1v56l-1 1h-8l-6-20-1-1-15-1-34-1v80h70l2-6 14-28 6-2h2l-1 25-2 24-1 1h-140l-1-1v-6l19-6h2v-166l-2-3-19-6z"/>
	<path class="s1" d="m1167 282h176l1 4-8 43-2 4h-6l-9-36-50-1 1 166 8 3 16 5v7h-79l-1-7 23-7 1-1 1-166-50 1-12 34-2 2h-5l-1-2-3-39v-9z"/>
	<path fill-rule="evenodd" class="s1" d="m300 289h40l14 5 10 8 6 9 4 11v16l-4 11-6 9-10 8-10 4-4 1h-40zm18 16v50h19l8-3 5-4 4-6 2-6v-12l-4-9-9-8-6-2z"/>
	<path fill-rule="evenodd" class="s1" d="m417 289h18l4 8 15 37 13 32 1 5h-19l-5-13h-36l-5 13h-19l3-10 15-36 14-34zm9 22l-4 8-8 22h24l-9-25-2-5z"/>
	<path class="s1" d="m487 488h1066v3h-1066z"/>
	<path fill-rule="evenodd" class="s1" d="m1061 278l4 2 11 7 22 2 10 3 11 7 9 8 7 9 4 10v15l-2 3-5-12-1-3h-2l-5-5-10-5-11-3-12-1-11 3-9-11-3-2-7 1 1 13-5 8h-2l-2 4-9 29-11 36-5 17-7 21-6 20-3 17-1 1h-6l-2-4 8-17 11-36 5-16 20-65 1-7 1-16 3-3-6-8-2-1v-2l-7-1-1-2 5-1 7 3 6 4h3l3-10-2-4-8 2-9-1v-3l9-1zm3 16l-1 4 12 2 9 6h13l15 1-4-4-10-4-14-2h-11l-6-1v-2z"/>
	<path class="s1" d="m962 45h23l-2 14-4 9-6 7-9 4h-17l-16-5-9-3h-9l-5 5-1 3-3 1h-16l-3-1v-10l4-11 7-8 9-4h17l17 5 10 3 8-1 4-5z"/>
	<path class="s1" d="m401 11h15l10 4 5 4-2 4-4-1-8-4-4-1h-10l-9 3-6 5-4 8-1 10 3 10 4 5 9 5 4 1h10l9-3 6-5 4-8 2-8h-27v-5h32l1 7-2 9-6 10-8 6-9 3h-14l-10-4-8-7-4-6-2-6v-13l4-10 8-8 8-4z"/>
	<path fill-rule="evenodd" class="s1" d="m472 11h6l5 10 15 35 5 12v2h-6l-5-11v-2l-33 1-6 12h-6l5-13 17-39zm3 8l-7 15-7 18h28l-3-10-10-23z"/>
	<path fill-rule="evenodd" class="s1" d="m851 331l5 2 18 13 35 24-2 5-13 18-11 16-13 19-5-2-18-13-35-24 2-5 13-18 11-16zm1 4l-9 12-16 23-11 16 2 4 23 16 20 14 6 4 4-2 16-23 14-20 4-6-2-4-23-16-20-14-6-4z"/>
	<path class="s1" d="m1571 474l5 2 10 10 1 4-7 8-7 6-5-2-10-10-1-4 7-8z"/>
	<path class="s1" d="m467 474l5 2 10 10 1 4-7 8-7 6-5-2-10-10-1-4 7-8z"/>
	<path class="s1" d="m298 11h5v54h35v5h-40z"/>
	<path class="s1" d="m355 11h5v59h-5z"/>
</svg>